<?xml version="1.0" encoding="UTF-8"?>
<svg version="1.1" xmlns="http://www.w3.org/2000/svg" width="500" height="500">
<path d="M0 0 C2.70996706 -0.09661846 5.37172491 -0.03771659 8.08056641 0.08447266 C9.49112305 0.11831055 9.49112305 0.11831055 10.93017578 0.15283203 C13.25274114 0.21178039 15.57210416 0.29399481 17.89306641 0.39697266 C17.27977832 6.24124737 16.89101478 9.76776927 12.89306641 14.39697266 C10.6206449 15.96718666 8.37572704 17.15564234 5.89306641 18.39697266 C6.85212891 19.78916016 6.85212891 19.78916016 7.83056641 21.20947266 C10.87832356 25.91964281 11.4320968 29.88462406 10.89306641 35.39697266 C9.11621171 41.45918278 6.21797359 45.15272365 0.89306641 48.39697266 C-8.36715009 52.55759441 -19.14191204 52.09750569 -29.10693359 52.39697266 C-29.10693359 53.38697266 -29.10693359 54.37697266 -29.10693359 55.39697266 C-28.2505127 55.40631836 -27.3940918 55.41566406 -26.51171875 55.42529297 C-23.28695941 55.46971234 -20.0630969 55.53150496 -16.83886719 55.60449219 C-15.45226883 55.6324491 -14.06551859 55.65378736 -12.67871094 55.66796875 C-2.6650057 55.77642043 7.10666901 56.36158914 14.89306641 63.39697266 C15.60002621 65.04695146 16.27158858 66.7129336 16.89306641 68.39697266 C16.90337387 67.697621 16.91368134 66.99826935 16.92430115 66.27772522 C17.02211673 59.69983602 17.12460798 53.12203845 17.23240566 46.54430485 C17.28766442 43.16230143 17.34108897 39.78028942 17.39038086 36.39819336 C17.44707587 32.51357838 17.51164225 28.62911388 17.57666016 24.74462891 C17.59337265 23.52485855 17.61008514 22.3050882 17.62730408 21.0483551 C17.6472493 19.92726852 17.66719452 18.80618195 17.68774414 17.65112305 C17.70328842 16.65850967 17.7188327 15.6658963 17.73484802 14.64320374 C17.89306641 12.39697266 17.89306641 12.39697266 18.89306641 11.39697266 C20.30876764 11.31045655 21.72866141 11.28992362 23.14697266 11.29931641 C24.42797852 11.30415039 24.42797852 11.30415039 25.73486328 11.30908203 C26.63269531 11.31746094 27.53052734 11.32583984 28.45556641 11.33447266 C29.35726562 11.33898437 30.25896484 11.34349609 31.18798828 11.34814453 C33.42307954 11.35997041 35.65804077 11.37645045 37.89306641 11.39697266 C38.38806641 13.87197266 38.38806641 13.87197266 38.89306641 16.39697266 C39.50150391 15.96602295 40.10994141 15.53507324 40.73681641 15.09106445 C48.37219935 10.255088 54.97588421 9.60237867 63.80273438 10.09692383 C65.91811247 10.2108212 68.02913762 10.26299974 70.14697266 10.30908203 C71.49998292 10.36212891 72.85286282 10.4186405 74.20556641 10.47900391 C75.41857422 10.53290283 76.63158203 10.58680176 77.88134766 10.64233398 C80.89306641 11.39697266 80.89306641 11.39697266 82.72875977 13.65209961 C83.80789498 16.19617955 84.60690032 18.53997229 85.20947266 21.23291016 C85.41636719 22.13267578 85.62326172 23.03244141 85.83642578 23.95947266 C86.14290039 25.35166016 86.14290039 25.35166016 86.45556641 26.77197266 C86.87209012 28.61344594 87.29003077 30.45459937 87.70947266 32.29541016 C87.90686035 33.16520508 88.10424805 34.035 88.30761719 34.93115234 C89.06521055 38.1220168 89.9539845 41.25515946 90.89306641 44.39697266 C93.39176774 36.25218881 95.63385287 28.0505944 97.81884766 19.81689453 C98.07279297 18.87265625 98.32673828 17.92841797 98.58837891 16.95556641 C98.81541504 16.102771 99.04245117 15.24997559 99.27636719 14.37133789 C99.89306641 12.39697266 99.89306641 12.39697266 100.89306641 11.39697266 C102.60078998 11.30983434 104.3120529 11.28997258 106.02197266 11.29931641 C107.57368164 11.30415039 107.57368164 11.30415039 109.15673828 11.30908203 C110.24535156 11.31746094 111.33396484 11.32583984 112.45556641 11.33447266 C114.09428711 11.34124023 114.09428711 11.34124023 115.76611328 11.34814453 C118.47515136 11.35997439 121.1840824 11.37645722 123.89306641 11.39697266 C126.5139718 17.94530084 128.34899958 24.56476578 130.08056641 31.39697266 C130.48952148 32.98832031 130.48952148 32.98832031 130.90673828 34.61181641 C131.57278389 37.20588877 132.2347907 39.80091981 132.89306641 42.39697266 C135.00311645 39.2318976 135.66977594 36.90289412 136.58447266 33.23291016 C136.88933594 32.02892578 137.19419922 30.82494141 137.50830078 29.58447266 C137.97719727 27.69728516 137.97719727 27.69728516 138.45556641 25.77197266 C139.07880523 23.27901734 139.70494605 20.78678509 140.33447266 18.29541016 C140.74741577 16.63517822 140.74741577 16.63517822 141.16870117 14.94140625 C141.89306641 12.39697266 141.89306641 12.39697266 142.89306641 11.39697266 C145.99557841 11.30823131 149.07574761 11.28178811 152.17822266 11.29931641 C153.1090416 11.30073135 154.03986053 11.3021463 154.99888611 11.30360413 C157.98447832 11.30922094 160.9699967 11.32177626 163.95556641 11.33447266 C165.97444553 11.33948549 167.99332583 11.34404877 170.01220703 11.34814453 C174.97252212 11.35919583 179.93278173 11.3764717 184.89306641 11.39697266 C185.22306641 13.04697266 185.55306641 14.69697266 185.89306641 16.39697266 C187.04806641 15.96384766 188.20306641 15.53072266 189.39306641 15.08447266 C190.13041016 14.81376953 190.86775391 14.54306641 191.62744141 14.26416016 C193.0294522 13.72752844 194.41917938 13.15565638 195.78369141 12.52978516 C202.26449013 9.67060925 209.47007783 9.06145987 216.29931641 11.12353516 C220.5663436 13.08190958 223.25356608 15.43772217 225.89306641 19.39697266 C226.47314453 18.91486328 227.05322266 18.43275391 227.65087891 17.93603516 C235.07282153 11.93479442 240.31377647 9.9098634 249.91650391 10.07666016 C255.32256051 10.65841428 259.00203264 12.91481105 263.20556641 16.20947266 C271.02642444 26.34762196 269.05627126 40.98740196 269.0234375 53.14599609 C269.0179971 55.55263338 269.02345704 57.95909044 269.02978516 60.36572266 C269.02912566 61.89957723 269.02784716 63.4334317 269.02587891 64.96728516 C269.02790314 65.68490021 269.02992737 66.40251526 269.03201294 67.14187622 C269.00808003 72.1669454 269.00808003 72.1669454 267.89306641 74.39697266 C264.08058215 74.42584502 260.26812571 74.44372757 256.45556641 74.45947266 C255.36695313 74.46785156 254.27833984 74.47623047 253.15673828 74.48486328 C252.12226563 74.48808594 251.08779297 74.49130859 250.02197266 74.49462891 C249.06363525 74.49986572 248.10529785 74.50510254 247.11791992 74.51049805 C244.89306641 74.39697266 244.89306641 74.39697266 243.89306641 73.39697266 C243.76989051 70.54943575 243.70693559 67.72240282 243.68212891 64.87353516 C243.65406022 63.11310919 243.62539575 61.35269265 243.59619141 59.59228516 C243.55490094 56.80517844 243.51803121 54.0182475 243.49169922 51.23095703 C243.46413777 48.54894273 243.41826483 45.86773886 243.36962891 43.18603516 C243.3647496 41.93435043 243.3647496 41.93435043 243.35977173 40.65737915 C243.38976313 36.403969 243.38976313 36.403969 241.59750366 32.69589233 C238.94548331 30.67483735 236.14047793 30.70333223 232.89306641 30.39697266 C229.47502524 34.93711813 229.42464128 38.74094978 229.38134766 44.19775391 C229.36339645 45.03412888 229.34544525 45.87050385 229.32695007 46.73222351 C229.27297131 49.391256 229.23899179 52.05011027 229.20556641 54.70947266 C229.1723823 56.5174401 229.13789162 58.32538406 229.10205078 60.13330078 C229.01725216 64.5543959 228.95038199 68.9754393 228.89306641 73.39697266 C223.01384001 73.97683794 217.18199453 74.53757669 211.26806641 74.52197266 C209.76373047 74.52583984 209.76373047 74.52583984 208.22900391 74.52978516 C205.89306641 74.39697266 205.89306641 74.39697266 204.89306641 73.39697266 C204.75749688 70.73000921 204.68244528 68.0853356 204.64697266 65.41650391 C204.61401353 63.76090007 204.58080225 62.10530124 204.54736328 60.44970703 C204.50008301 57.83410346 204.45570279 55.2185171 204.41625977 52.6027832 C204.37634804 50.08213098 204.32482735 47.56191341 204.27197266 45.04150391 C204.25935143 43.87866631 204.25935143 43.87866631 204.24647522 42.69233704 C204.14569383 38.22865151 203.56327542 34.60486359 201.89306641 30.39697266 C200.63494141 30.33509766 199.37681641 30.27322266 198.08056641 30.20947266 C197.37287109 30.17466797 196.66517578 30.13986328 195.93603516 30.10400391 C193.27304704 30.48588557 192.56574747 31.32608892 190.89306641 33.39697266 C190.42559228 35.30396291 190.42559228 35.30396291 190.46069336 37.40942383 C190.43100212 38.61032906 190.43100212 38.61032906 190.40071106 39.835495 C190.39432114 40.69496231 190.38793121 41.55442963 190.38134766 42.43994141 C190.36339645 43.32353836 190.34544525 44.20713531 190.32695007 45.11750793 C190.27276645 47.93978096 190.2389258 50.7618841 190.20556641 53.58447266 C190.17240041 55.4979078 190.13791143 57.4113205 190.10205078 59.32470703 C190.01703541 64.01533981 189.95026279 68.7059215 189.89306641 73.39697266 C186.97502689 74.3696525 185.07906507 74.52579062 182.04150391 74.52978516 C180.64158203 74.53171875 180.64158203 74.53171875 179.21337891 74.53369141 C177.75544922 74.52789062 177.75544922 74.52789062 176.26806641 74.52197266 C175.28837891 74.52583984 174.30869141 74.52970703 173.29931641 74.53369141 C172.36861328 74.53240234 171.43791016 74.53111328 170.47900391 74.52978516 C169.6235498 74.52865723 168.7680957 74.5275293 167.88671875 74.52636719 C165.89306641 74.39697266 165.89306641 74.39697266 164.89306641 73.39697266 C164.77015922 71.74052899 164.71522733 70.07898273 164.68774414 68.41821289 C164.66779892 67.35718857 164.6478537 66.29616425 164.62730408 65.20298767 C164.60223534 63.47176414 164.60223534 63.47176414 164.57666016 61.70556641 C164.55587906 60.53059097 164.53509796 59.35561554 164.51368713 58.14503479 C164.44806516 54.37490942 164.3892481 50.60471184 164.33056641 46.83447266 C164.28739321 44.28563693 164.24377932 41.73680862 164.19970703 39.18798828 C164.09237095 32.92439374 163.99062851 26.66072665 163.89306641 20.39697266 C163.25631457 21.97034188 162.62142679 23.54446556 161.98730469 25.11889648 C161.45666916 26.43365715 161.45666916 26.43365715 160.91531372 27.77497864 C159.7196503 30.84177305 158.67968591 33.94124014 157.66162109 37.0703125 C155.24556802 44.38447571 152.51809673 51.59745586 149.84033203 58.81884766 C149.02944669 61.02579333 148.24543433 63.23951949 147.47119141 65.45947266 C147.07416016 66.53197266 146.67712891 67.60447266 146.26806641 68.70947266 C145.94580078 69.61310547 145.62353516 70.51673828 145.29150391 71.44775391 C143.89306641 73.39697266 143.89306641 73.39697266 141.29931641 74.18603516 C137.19578311 74.44015304 133.12817913 74.50475356 129.01806641 74.45947266 C128.23431641 74.45496094 127.45056641 74.45044922 126.64306641 74.44580078 C124.72636627 74.43411359 122.80970592 74.41618174 120.89306641 74.39697266 C118.60550229 69.31349685 116.81882676 64.24805314 115.26806641 58.89697266 C115.05150391 58.17638672 114.83494141 57.45580078 114.61181641 56.71337891 C113.3130269 52.27985672 112.43642694 47.98535051 111.89306641 43.39697266 C111.23306641 43.39697266 110.57306641 43.39697266 109.89306641 43.39697266 C109.78865234 44.48107422 109.68423828 45.56517578 109.57666016 46.68212891 C108.8845995 52.20036999 107.42718771 57.48087667 105.95556641 62.83447266 C105.69066406 63.83929688 105.42576172 64.84412109 105.15283203 65.87939453 C104.89308594 66.83265625 104.63333984 67.78591797 104.36572266 68.76806641 C104.01392944 70.06635376 104.01392944 70.06635376 103.6550293 71.39086914 C102.89306641 73.39697266 102.89306641 73.39697266 100.89306641 74.39697266 C97.41924983 74.63644906 93.93672827 74.58216266 90.45556641 74.58447266 C89.488125 74.59671875 88.52068359 74.60896484 87.52392578 74.62158203 C86.59515625 74.62351562 85.66638672 74.62544922 84.70947266 74.62744141 C83.85812744 74.63155029 83.00678223 74.63565918 82.12963867 74.63989258 C79.89306641 74.39697266 79.89306641 74.39697266 76.89306641 72.39697266 C75.85134946 70.10399799 74.97153707 67.89107296 74.14306641 65.52197266 C73.89210205 64.82958496 73.6411377 64.13719727 73.38256836 63.42382812 C72.53993224 61.08589308 71.71477777 58.74234128 70.89306641 56.39697266 C70.58224121 55.51267578 70.27141602 54.62837891 69.95117188 53.71728516 C68.68292251 50.1050449 67.41594079 46.49248241 66.16552734 42.87402344 C65.88354492 42.0591748 65.6015625 41.24432617 65.31103516 40.40478516 C65.06119873 39.6792041 64.8113623 38.95362305 64.55395508 38.20605469 C63.90874381 36.33403573 63.90874381 36.33403573 62.89306641 34.39697266 C57.4153056 32.93937107 52.06924256 33.01593163 46.89306641 35.39697266 C43.99614041 39.95262583 43.48816591 43.64199733 43.38134766 48.98291016 C43.35442085 50.03558578 43.35442085 50.03558578 43.32695007 51.10952759 C43.27317594 53.33028319 43.23905947 55.55082805 43.20556641 57.77197266 C43.17236404 59.2863247 43.1378717 60.80064904 43.10205078 62.31494141 C43.01747059 66.00874939 42.95050291 69.70263144 42.89306641 73.39697266 C39.95174749 74.37741229 38.06804976 74.51318468 35.00634766 74.49462891 C34.06855469 74.49140625 33.13076172 74.48818359 32.16455078 74.48486328 C30.69985352 74.47229492 30.69985352 74.47229492 29.20556641 74.45947266 C28.2175 74.45496094 27.22943359 74.45044922 26.21142578 74.44580078 C23.77191167 74.43401569 21.33251952 74.41756277 18.89306641 74.39697266 C18.7091333 75.4058252 18.7091333 75.4058252 18.52148438 76.43505859 C18.35277832 77.32483398 18.18407227 78.21460938 18.01025391 79.13134766 C17.84638184 80.01016602 17.68250977 80.88898438 17.51367188 81.79443359 C16.24745094 87.10439234 14.09926854 90.63398541 9.81982422 94.05371094 C0.03646506 99.84615075 -10.12376548 99.24010244 -21.19042969 99.06933594 C-24.49560808 99.02177589 -27.79758914 99.02828803 -31.10302734 99.04150391 C-33.21632774 99.03035926 -35.32961468 99.01614511 -37.44287109 98.99853516 C-38.91486465 99.00126938 -38.91486465 99.00126938 -40.41659546 99.00405884 C-46.28584311 98.88267654 -49.59941365 98.23582679 -54.10693359 94.39697266 C-56.8050587 91.47144292 -58.92819289 88.34488151 -59.29833984 84.31103516 C-58.68718556 77.80037121 -55.97008745 72.75704163 -51.10693359 68.39697266 C-51.76693359 67.55134766 -52.42693359 66.70572266 -53.10693359 65.83447266 C-55.43108071 61.8398448 -55.75628742 59.94244944 -55.10693359 55.39697266 C-52.75065065 51.03348572 -49.69836199 47.78887725 -46.10693359 44.39697266 C-46.52845703 43.91486328 -46.94998047 43.43275391 -47.38427734 42.93603516 C-47.93212891 42.30439453 -48.47998047 41.67275391 -49.04443359 41.02197266 C-49.58970703 40.39548828 -50.13498047 39.76900391 -50.69677734 39.12353516 C-53.55548015 35.62340596 -53.57639835 32.53598104 -53.49365234 28.13134766 C-52.79449781 23.18783078 -50.73007979 19.7924165 -47.10693359 16.39697266 C-40.21896834 12.5021583 -33.07249863 10.32811514 -25.16552734 10.22119141 C-24.25222656 10.19734375 -23.33892578 10.17349609 -22.39794922 10.14892578 C-20.49192924 10.105874 -18.58560569 10.07466869 -16.67919922 10.05517578 C-11.32357655 9.97128849 -11.32357655 9.97128849 -6.64208984 7.66650391 C-5.00399612 5.41276772 -5.00399612 5.41276772 -3.99365234 2.66650391 C-2.10693359 0.39697266 -2.10693359 0.39697266 0 0 Z M-29.10693359 27.39697266 C-29.70063414 32.01740072 -29.70063414 32.01740072 -27.86083984 36.09228516 C-24.63841446 38.48936773 -20.93895123 37.88807961 -17.10693359 37.39697266 C-14.44849143 36.55177133 -14.44849143 36.55177133 -13.10693359 34.39697266 C-12.47711775 29.7891408 -12.47711775 29.7891408 -14.32177734 25.70166016 C-16.68124776 23.9772332 -18.20656941 23.99607655 -21.10693359 24.02197266 C-21.97318359 24.01423828 -22.83943359 24.00650391 -23.73193359 23.99853516 C-26.55865442 24.47275477 -27.45349905 25.0821643 -29.10693359 27.39697266 Z M-32.10693359 74.39697266 C-33.85258471 77.6133692 -34.31137059 79.7171067 -34.10693359 83.39697266 C-30.10393487 85.39847202 -25.00776629 84.58182474 -20.60693359 84.58447266 C-19.53572266 84.59671875 -18.46451172 84.60896484 -17.36083984 84.62158203 C-16.33861328 84.62351562 -15.31638672 84.62544922 -14.26318359 84.62744141 C-13.3228125 84.63155029 -12.38244141 84.63565918 -11.41357422 84.63989258 C-8.9114652 84.62094405 -8.9114652 84.62094405 -7.10693359 82.39697266 C-6.77360026 79.39697266 -6.77360026 79.39697266 -7.10693359 76.39697266 C-8.91461229 74.16565398 -8.91461229 74.16565398 -11.4453125 74.16992188 C-12.87496338 74.18563232 -12.87496338 74.18563232 -14.33349609 74.20166016 C-15.36474609 74.20810547 -16.39599609 74.21455078 -17.45849609 74.22119141 C-19.07884766 74.24632812 -19.07884766 74.24632812 -20.73193359 74.27197266 C-22.36388672 74.28550781 -22.36388672 74.28550781 -24.02880859 74.29931641 C-26.72173511 74.32293857 -29.41422615 74.3558771 -32.10693359 74.39697266 Z " fill="#DA4C2E" transform="translate(126.10693359375,192.60302734375)"/>
<path d="M0 0 C4.44023804 3.48018657 6.54977632 7.87378539 7.3425293 13.37841797 C8.05840481 21.84068507 8.15328738 30.26294538 8.13037109 38.74902344 C8.12493069 41.15566072 8.13039063 43.56211778 8.13671875 45.96875 C8.13605925 47.50260458 8.13478076 49.03645904 8.1328125 50.5703125 C8.13483673 51.28792755 8.13686096 52.0055426 8.13894653 52.74490356 C8.11501363 57.76997275 8.11501363 57.76997275 7 60 C3.18751574 60.02887236 -0.6249407 60.04675492 -4.4375 60.0625 C-5.52611328 60.07087891 -6.61472656 60.07925781 -7.73632812 60.08789062 C-8.77080078 60.09111328 -9.80527344 60.09433594 -10.87109375 60.09765625 C-11.82943115 60.10289307 -12.78776855 60.10812988 -13.77514648 60.11352539 C-16 60 -16 60 -17 59 C-17.1231759 56.15246309 -17.18613082 53.32543016 -17.2109375 50.4765625 C-17.23900619 48.71613654 -17.26767066 46.95571999 -17.296875 45.1953125 C-17.33816547 42.40820579 -17.37503519 39.62127485 -17.40136719 36.83398438 C-17.42892864 34.15197008 -17.47480158 31.4707662 -17.5234375 28.7890625 C-17.52669037 27.95460602 -17.52994324 27.12014954 -17.53329468 26.26040649 C-17.50330327 22.00699634 -17.50330327 22.00699634 -19.29556274 18.29891968 C-21.94758309 16.27786469 -24.75258847 16.30635958 -28 16 C-31.41804116 20.54014548 -31.46842513 24.34397712 -31.51171875 29.80078125 C-31.52966995 30.63715622 -31.54762115 31.47353119 -31.56611633 32.33525085 C-31.62009509 34.99428334 -31.65407461 37.65313761 -31.6875 40.3125 C-31.72068411 42.12046744 -31.75517478 43.9284114 -31.79101562 45.73632812 C-31.87581424 50.15742324 -31.94268441 54.57846664 -32 59 C-37.8792264 59.57986529 -43.71107188 60.14060403 -49.625 60.125 C-51.12933594 60.12886719 -51.12933594 60.12886719 -52.6640625 60.1328125 C-55 60 -55 60 -56 59 C-56.14796185 56.33306391 -56.23510921 53.68880017 -56.28125 51.01953125 C-56.29965942 50.21392258 -56.31806885 49.4083139 -56.33703613 48.57829285 C-56.39596461 45.98977178 -56.44864393 43.4011817 -56.5 40.8125 C-56.5515272 38.24167783 -56.60455809 35.67094112 -56.66296387 33.1002655 C-56.69934569 31.49871916 -56.7318391 29.89707834 -56.7598877 28.29536438 C-56.85495958 24.10358216 -57.19001404 20.12986261 -58 16 C-56.02 16.99 -56.02 16.99 -54 18 C-54 31.2 -54 44.4 -54 58 C-47.4 58 -40.8 58 -34 58 C-34 43.81 -34 29.62 -34 15 C-33.34 14.67 -32.68 14.34 -32 14 C-31.34 14.33 -30.68 14.66 -30 15 C-28.23537317 11.91190305 -28 10.76687864 -28 7 C-30.64 7 -33.28 7 -36 7 C-33.63905089 2.27810179 -27.77576744 -1.09238553 -23.1875 -3.4375 C-14.75642076 -4.92533751 -7.19096702 -5.03193576 0 0 Z " fill="#DA593D" transform="translate(387,207)"/>
<path d="M0 0 C5.28 0 10.56 0 16 0 C17.88343932 3.76687864 18.22057835 5.02958963 18 9 C18.66 9.33 19.32 9.66 20 10 C19.67 10.66 19.34 11.32 19 12 C20.32 12.66 21.64 13.32 23 14 C22.67 14.66 22.34 15.32 22 16 C21.34 16 20.68 16 20 16 C20 30.19 20 44.38 20 59 C13.07 59 6.14 59 -1 59 C-1.0225719 51.60266709 -1.04092722 44.20535293 -1.05181217 36.80799294 C-1.05703579 33.37328438 -1.06412401 29.93860057 -1.07543945 26.50390625 C-1.08836035 22.55729465 -1.09323252 18.61069316 -1.09765625 14.6640625 C-1.10281754 13.42757965 -1.10797882 12.1910968 -1.11329651 10.91714478 C-1.11337204 9.77611298 -1.11344757 8.63508118 -1.11352539 7.45947266 C-1.115746 6.451315 -1.11796661 5.44315735 -1.12025452 4.40444946 C-1 2 -1 2 0 0 Z " fill="#DA4A2B" transform="translate(294,206)"/>
<path d="M0 0 C1.07507813 -0.00128906 2.15015625 -0.00257813 3.2578125 -0.00390625 C4.38960938 -0.00003906 5.52140625 0.00382813 6.6875 0.0078125 C7.81929688 0.00394531 8.95109375 0.00007812 10.1171875 -0.00390625 C11.19226563 -0.00261719 12.26734375 -0.00132812 13.375 0 C14.86580078 0.00169189 14.86580078 0.00169189 16.38671875 0.00341797 C18.6875 0.1328125 18.6875 0.1328125 19.6875 1.1328125 C19.78682153 2.82839976 19.81830007 4.52806997 19.8203125 6.2265625 C19.82224609 7.77150391 19.82224609 7.77150391 19.82421875 9.34765625 C19.82035156 10.43175781 19.81648438 11.51585937 19.8125 12.6328125 C19.81830078 14.25896484 19.81830078 14.25896484 19.82421875 15.91796875 C19.82292969 16.94792969 19.82164062 17.97789062 19.8203125 19.0390625 C19.81918457 19.99103516 19.81805664 20.94300781 19.81689453 21.92382812 C19.6875 24.1328125 19.6875 24.1328125 18.6875 25.1328125 C16.91890807 25.23227703 15.14638549 25.26361467 13.375 25.265625 C12.29992187 25.26691406 11.22484375 25.26820313 10.1171875 25.26953125 C8.98539062 25.26566406 7.85359375 25.26179688 6.6875 25.2578125 C5.55570312 25.26167969 4.42390625 25.26554687 3.2578125 25.26953125 C2.18273437 25.26824219 1.10765625 25.26695312 0 25.265625 C-0.99386719 25.26449707 -1.98773438 25.26336914 -3.01171875 25.26220703 C-5.3125 25.1328125 -5.3125 25.1328125 -6.3125 24.1328125 C-6.41182153 22.43722524 -6.44330007 20.73755503 -6.4453125 19.0390625 C-6.44724609 17.49412109 -6.44724609 17.49412109 -6.44921875 15.91796875 C-6.44535156 14.83386719 -6.44148438 13.74976563 -6.4375 12.6328125 C-6.44136719 11.54871094 -6.44523437 10.46460938 -6.44921875 9.34765625 C-6.44792969 8.31769531 -6.44664062 7.28773438 -6.4453125 6.2265625 C-6.44418457 5.27458984 -6.44305664 4.32261719 -6.44189453 3.34179688 C-6.19164648 -0.93036239 -3.70725345 0.00420732 0 0 Z " fill="#D74B2E" transform="translate(406.3125,241.8671875)"/>
<path d="M0 0 C0.495 0.99 0.495 0.99 1 2 C2.918125 1.938125 2.918125 1.938125 4.875 1.875 C7.0546875 1.8046875 7.0546875 1.8046875 9 2 C11 4 11 4 11.4375 7.4375 C11 11 11 11 8.88671875 12.70703125 C5.48323119 14.23146208 3.08996911 14.33540159 -0.625 14.25 C-1.75164062 14.23453125 -2.87828125 14.2190625 -4.0390625 14.203125 C-7 14 -7 14 -10 13 C-9.67 10.69 -9.34 8.38 -9 6 C-9.66 6 -10.32 6 -11 6 C-11.268125 7.134375 -11.53625 8.26875 -11.8125 9.4375 C-12.204375 10.613125 -12.59625 11.78875 -13 13 C-13.99 13.33 -14.98 13.66 -16 14 C-15.67 11.03 -15.34 8.06 -15 5 C-15.99 5 -16.98 5 -18 5 C-17.938125 6.11375 -17.87625 7.2275 -17.8125 8.375 C-17.9053125 10.169375 -17.9053125 10.169375 -18 12 C-21.63306058 14.42204038 -23.31819023 14.23302891 -27.63671875 14.1953125 C-29.58481445 14.18564453 -29.58481445 14.18564453 -31.57226562 14.17578125 C-32.94401307 14.1590706 -34.31575786 14.14214071 -35.6875 14.125 C-37.07095718 14.11496674 -38.45442127 14.10584149 -39.83789062 14.09765625 C-43.22543452 14.07404967 -46.61263072 14.04112037 -50 14 C-49.85904936 12.3745692 -49.71207913 10.74965949 -49.5625 9.125 C-49.48128906 8.22007812 -49.40007812 7.31515625 -49.31640625 6.3828125 C-49 4 -49 4 -48 2 C-47.01 2 -46.02 2 -45 2 C-45 4.64 -45 7.28 -45 10 C-43.35 10 -41.7 10 -40 10 C-40 7.69 -40 5.38 -40 3 C-36.59437148 2.22157062 -33.49234244 1.90021879 -30 2 C-29.67 2.66 -29.34 3.32 -29 4 C-28.34 3.34 -27.68 2.68 -27 2 C-24.40209961 1.69702148 -24.40209961 1.69702148 -21.15234375 1.62109375 C-19.99025391 1.58693359 -18.82816406 1.55277344 -17.63085938 1.51757812 C-15.80264648 1.47793945 -15.80264648 1.47793945 -13.9375 1.4375 C-11.52984152 1.37784794 -9.12227604 1.31426646 -6.71484375 1.24609375 C-5.10790649 1.21020142 -5.10790649 1.21020142 -3.46850586 1.17358398 C-1.05651292 1.27510096 -1.05651292 1.27510096 0 0 Z M5 5 C4.67 6.65 4.34 8.3 4 10 C4.99 9.67 5.98 9.34 7 9 C7 7.68 7 6.36 7 5 C6.34 5 5.68 5 5 5 Z M-23 6 C-22 9 -22 9 -22 9 Z M-37 8 C-36 11 -36 11 -36 11 Z M-1 9 C0 11 0 11 0 11 Z " fill="#E5A899" transform="translate(361,274)"/>
<path d="M0 0 C1.18613892 0.00785522 1.18613892 0.00785522 2.39624023 0.01586914 C3.67724609 0.02070313 3.67724609 0.02070313 4.98413086 0.02563477 C5.88196289 0.03401367 6.77979492 0.04239258 7.70483398 0.05102539 C8.6065332 0.05553711 9.50823242 0.06004883 10.43725586 0.06469727 C12.67234712 0.07652315 14.90730835 0.09300319 17.14233398 0.11352539 C17.47233398 1.76352539 17.80233398 3.41352539 18.14233398 5.11352539 C19.13233398 5.44352539 20.12233398 5.77352539 21.14233398 6.11352539 C20.81233398 7.76352539 20.48233398 9.41352539 20.14233398 11.11352539 C18.82233398 10.78352539 17.50233398 10.45352539 16.14233398 10.11352539 C15.81233398 8.13352539 15.48233398 6.15352539 15.14233398 4.11352539 C10.52233398 4.11352539 5.90233398 4.11352539 1.14233398 4.11352539 C0.81233398 22.92352539 0.48233398 41.73352539 0.14233398 61.11352539 C6.74233398 61.11352539 13.34233398 61.11352539 20.14233398 61.11352539 C20.14233398 49.56352539 20.14233398 38.01352539 20.14233398 26.11352539 C20.80233398 25.78352539 21.46233398 25.45352539 22.14233398 25.11352539 C22.14233398 24.45352539 22.14233398 23.79352539 22.14233398 23.11352539 C23.13233398 23.11352539 24.12233398 23.11352539 25.14233398 23.11352539 C25.14233398 22.45352539 25.14233398 21.79352539 25.14233398 21.11352539 C26.13233398 21.44352539 27.12233398 21.77352539 28.14233398 22.11352539 C27.50295898 22.87665039 26.86358398 23.63977539 26.20483398 24.42602539 C22.9793474 28.62893215 22.95024725 32.31486254 22.82592773 37.40649414 C22.80514664 38.11252274 22.78436554 38.81855133 22.76295471 39.54597473 C22.69765907 41.7975609 22.63866752 44.04926201 22.57983398 46.30102539 C22.53662973 47.82903199 22.49301483 49.35702703 22.44897461 50.88500977 C22.34199824 54.62773101 22.24067477 58.37056769 22.14233398 62.11352539 C19.20101507 63.09396503 17.31731734 63.22973741 14.25561523 63.21118164 C13.31782227 63.20795898 12.3800293 63.20473633 11.41381836 63.20141602 C9.94912109 63.18884766 9.94912109 63.18884766 8.45483398 63.17602539 C6.97273437 63.16925781 6.97273437 63.16925781 5.46069336 63.16235352 C3.02117924 63.15056842 0.58178709 63.1341155 -1.85766602 63.11352539 C-2.18766602 65.42352539 -2.51766602 67.73352539 -2.85766602 70.11352539 C-3.18766602 70.11352539 -3.51766602 70.11352539 -3.85766602 70.11352539 C-3.91825195 69.53344727 -3.97883789 68.95336914 -4.04125977 68.35571289 C-4.51783163 63.91259676 -5.06775267 59.51447116 -5.85766602 55.11352539 C-5.19766602 55.77352539 -4.53766602 56.43352539 -3.85766602 57.11352539 C-3.84735855 56.41417374 -3.83705109 55.71482208 -3.82643127 54.99427795 C-3.72861569 48.41638876 -3.62612444 41.83859119 -3.51832676 35.26085758 C-3.463068 31.87885417 -3.40964346 28.49684215 -3.36035156 25.11474609 C-3.30365655 21.23013112 -3.23909017 17.34566662 -3.17407227 13.46118164 C-3.15735977 12.24141129 -3.14064728 11.02164093 -3.12342834 9.76490784 C-3.10348312 8.64382126 -3.0835379 7.52273468 -3.06298828 6.36767578 C-3.047444 5.37506241 -3.03189972 4.38244904 -3.0158844 3.35975647 C-2.82124512 0.5964568 -2.76948297 0.1692482 0 0 Z " fill="#CC6A56" transform="translate(146.857666015625,203.886474609375)"/>
<path d="M0 0 C13.86 0 27.72 0 42 0 C42.495 2.475 42.495 2.475 43 5 C43.763125 4.649375 44.52625 4.29875 45.3125 3.9375 C48 3 48 3 51 4 C48.36 5.98 45.72 7.96 43 10 C42.34 7.69 41.68 5.38 41 3 C35.72 2.67 30.44 2.34 25 2 C24.67 21.47 24.34 40.94 24 61 C30.93 61 37.86 61 45 61 C44.505 61.99 44.505 61.99 44 63 C40.52085059 63.02887814 37.04173169 63.04675687 33.5625 63.0625 C32.07266602 63.07506836 32.07266602 63.07506836 30.55273438 63.08789062 C29.60849609 63.09111328 28.66425781 63.09433594 27.69140625 63.09765625 C26.81685791 63.10289307 25.94230957 63.10812988 25.04125977 63.11352539 C23 63 23 63 22 62 C21.87147795 60.2063743 21.81155373 58.40778953 21.77880859 56.60986328 C21.75563568 55.45841827 21.73246277 54.30697327 21.70858765 53.12063599 C21.6887381 51.86652924 21.66888855 50.61242249 21.6484375 49.3203125 C21.62528473 48.04147186 21.60213196 46.76263123 21.57827759 45.44503784 C21.52975671 42.73309655 21.48483968 40.02112483 21.44238281 37.30908203 C21.38765378 33.83302687 21.32380553 30.3572104 21.25720787 26.88136482 C21.19505595 23.56942865 21.14086294 20.25737648 21.0859375 16.9453125 C21.06203949 15.69525421 21.03814148 14.44519592 21.01351929 13.15725708 C20.9966507 11.99950775 20.9797821 10.84175842 20.96240234 9.64892578 C20.94543304 8.62824005 20.92846375 7.60755432 20.91098022 6.55593872 C21 4 21 4 22 1 C14.74 1 7.48 1 0 1 C0 0.67 0 0.34 0 0 Z " fill="#E3A89B" transform="translate(269,204)"/>
<path d="M0 0 C2.70996706 -0.09661846 5.37172491 -0.03771659 8.08056641 0.08447266 C9.49112305 0.11831055 9.49112305 0.11831055 10.93017578 0.15283203 C13.25274114 0.21178039 15.57210416 0.29399481 17.89306641 0.39697266 C17.14306641 8.14697266 17.14306641 8.14697266 14.89306641 10.39697266 C14.89306641 7.75697266 14.89306641 5.11697266 14.89306641 2.39697266 C10.82940291 2.59178599 10.82940291 2.59178599 6.89306641 3.39697266 C4.92178652 5.68202103 4.92178652 5.68202103 3.89306641 8.39697266 C3.23306641 9.38697266 2.57306641 10.37697266 1.89306641 11.39697266 C1.26014258 13.50977611 1.26014258 13.50977611 0.89306641 15.39697266 C0.39806641 13.41697266 0.39806641 13.41697266 -0.10693359 11.39697266 C-0.76693359 11.39697266 -1.42693359 11.39697266 -2.10693359 11.39697266 C-2.10693359 12.05697266 -2.10693359 12.71697266 -2.10693359 13.39697266 C-4.08693359 14.38697266 -4.08693359 14.38697266 -6.10693359 15.39697266 C-6.76693359 14.40697266 -7.42693359 13.41697266 -8.10693359 12.39697266 C-10.38544593 12.05723109 -10.38544593 12.05723109 -13.00927734 12.28759766 C-14.46817383 12.36300781 -14.46817383 12.36300781 -15.95654297 12.43994141 C-16.97554687 12.50826172 -17.99455078 12.57658203 -19.04443359 12.64697266 C-20.05957031 12.69982422 -21.07470703 12.75267578 -22.12060547 12.80712891 C-27.70303211 13.0958029 -27.70303211 13.0958029 -33.10693359 14.39697266 C-34.50133024 14.46362642 -35.89863234 14.48235464 -37.29443359 14.45947266 C-39.18162109 14.42853516 -39.18162109 14.42853516 -41.10693359 14.39697266 C-33.75527007 9.49586364 -25.04604568 10.05344769 -16.53271484 10.00634766 C-11.25862793 9.94969829 -11.25862793 9.94969829 -6.65380859 7.67041016 C-5.00350159 5.41503631 -5.00350159 5.41503631 -3.99365234 2.66650391 C-2.10693359 0.39697266 -2.10693359 0.39697266 0 0 Z " fill="#DB4A2C" transform="translate(126.10693359375,192.60302734375)"/>
<path d="M0 0 C0.99 0 1.98 0 3 0 C3 2.64 3 5.28 3 8 C4.65 8 6.3 8 8 8 C8 5.69 8 3.38 8 1 C11.40562852 0.22157062 14.50765756 -0.09978121 18 0 C18.33 0.66 18.66 1.32 19 2 C19.99 2.33 20.98 2.66 22 3 C22 2.34 22 1.68 22 1 C22.99 1 23.98 1 25 1 C24.67 4.3 24.34 7.6 24 11 C20.60423365 11.16813697 17.20839813 11.33456454 13.8125 11.5 C12.85279297 11.54769531 11.89308594 11.59539062 10.90429688 11.64453125 C9.50727539 11.71220703 9.50727539 11.71220703 8.08203125 11.78125 C6.80162964 11.8440918 6.80162964 11.8440918 5.49536133 11.90820312 C2.99442835 12.00020496 0.50237795 12.0156766 -2 12 C-1.85904936 10.3745692 -1.71207913 8.74965949 -1.5625 7.125 C-1.48128906 6.22007812 -1.40007812 5.31515625 -1.31640625 4.3828125 C-1 2 -1 2 0 0 Z M11 6 C12 9 12 9 12 9 Z " fill="#E59E8F" transform="translate(313,276)"/>
<path d="M0 0 C1.07507813 -0.00128906 2.15015625 -0.00257813 3.2578125 -0.00390625 C4.38960938 -0.00003906 5.52140625 0.00382813 6.6875 0.0078125 C7.81929688 0.00394531 8.95109375 0.00007812 10.1171875 -0.00390625 C11.19226563 -0.00261719 12.26734375 -0.00132812 13.375 0 C14.86580078 0.00169189 14.86580078 0.00169189 16.38671875 0.00341797 C18.6875 0.1328125 18.6875 0.1328125 19.6875 1.1328125 C19.78682153 2.82839976 19.81830007 4.52806997 19.8203125 6.2265625 C19.82224609 7.77150391 19.82224609 7.77150391 19.82421875 9.34765625 C19.82035156 10.43175781 19.81648438 11.51585937 19.8125 12.6328125 C19.81830078 14.25896484 19.81830078 14.25896484 19.82421875 15.91796875 C19.82292969 16.94792969 19.82164062 17.97789062 19.8203125 19.0390625 C19.81918457 19.99103516 19.81805664 20.94300781 19.81689453 21.92382812 C19.6875 24.1328125 19.6875 24.1328125 18.6875 25.1328125 C16.91890807 25.23227703 15.14638549 25.26361467 13.375 25.265625 C12.29992187 25.26691406 11.22484375 25.26820313 10.1171875 25.26953125 C8.98539062 25.26566406 7.85359375 25.26179688 6.6875 25.2578125 C5.55570312 25.26167969 4.42390625 25.26554687 3.2578125 25.26953125 C2.18273437 25.26824219 1.10765625 25.26695312 0 25.265625 C-0.99386719 25.26449707 -1.98773438 25.26336914 -3.01171875 25.26220703 C-5.3125 25.1328125 -5.3125 25.1328125 -6.3125 24.1328125 C-6.41182153 22.43722524 -6.44330007 20.73755503 -6.4453125 19.0390625 C-6.44724609 17.49412109 -6.44724609 17.49412109 -6.44921875 15.91796875 C-6.44535156 14.83386719 -6.44148438 13.74976563 -6.4375 12.6328125 C-6.44136719 11.54871094 -6.44523437 10.46460938 -6.44921875 9.34765625 C-6.44792969 8.31769531 -6.44664062 7.28773438 -6.4453125 6.2265625 C-6.44418457 5.27458984 -6.44305664 4.32261719 -6.44189453 3.34179688 C-6.19164648 -0.93036239 -3.70725345 0.00420732 0 0 Z M-4.3125 2.1328125 C-4.3125 9.3928125 -4.3125 16.6528125 -4.3125 24.1328125 C3.2775 24.1328125 10.8675 24.1328125 18.6875 24.1328125 C18.6875 16.8728125 18.6875 9.6128125 18.6875 2.1328125 C11.0975 2.1328125 3.5075 2.1328125 -4.3125 2.1328125 Z " fill="#E6BEB5" transform="translate(406.3125,241.8671875)"/>
<path d="M0 0 C2.97 0 5.94 0 9 0 C3.57318407 3.61787729 -2.46864497 3.27392792 -8.8125 3.5625 C-9.69615234 3.60568359 -10.57980469 3.64886719 -11.49023438 3.69335938 C-13.65999623 3.79891536 -15.8299791 3.89991071 -18 4 C-18 4.99 -18 5.98 -18 7 C-17.1435791 7.0093457 -16.2871582 7.01869141 -15.40478516 7.02832031 C-12.18002581 7.07273968 -8.9561633 7.1345323 -5.73193359 7.20751953 C-4.34533524 7.23547644 -2.958585 7.25681471 -1.57177734 7.27099609 C6.96799249 7.36348458 14.29638144 8.00927301 22 12 C21.01 12.66 20.02 13.32 19 14 C15.8125 13.125 15.8125 13.125 13 12 C13 11.34 13 10.68 13 10 C1.78 10 -9.44 10 -21 10 C-20.67 7.03 -20.34 4.06 -20 1 C-13.4 1.33 -6.8 1.66 0 2 C0 1.34 0 0.68 0 0 Z " fill="#E5AA9C" transform="translate(115,241)"/>
<path d="M0 0 C1.18613892 0.00785522 1.18613892 0.00785522 2.39624023 0.01586914 C3.67724609 0.02070313 3.67724609 0.02070313 4.98413086 0.02563477 C5.88196289 0.03401367 6.77979492 0.04239258 7.70483398 0.05102539 C8.6065332 0.05553711 9.50823242 0.06004883 10.43725586 0.06469727 C12.67234712 0.07652315 14.90730835 0.09300319 17.14233398 0.11352539 C17.47233398 1.76352539 17.80233398 3.41352539 18.14233398 5.11352539 C19.13233398 5.44352539 20.12233398 5.77352539 21.14233398 6.11352539 C20.15233398 7.59852539 20.15233398 7.59852539 19.14233398 9.11352539 C18.48233398 9.11352539 17.82233398 9.11352539 17.14233398 9.11352539 C17.14233398 6.80352539 17.14233398 4.49352539 17.14233398 2.11352539 C10.87233398 2.11352539 4.60233398 2.11352539 -1.85766602 2.11352539 C-1.8524292 3.88920898 -1.84719238 5.66489258 -1.84179688 7.49438477 C-1.82561964 13.38562281 -1.8141576 19.27686009 -1.80585384 25.16811371 C-1.80065301 28.7371699 -1.79360665 32.30620188 -1.78222656 35.87524414 C-1.77129763 39.32469417 -1.76536813 42.77412102 -1.76278877 46.22358704 C-1.76006367 48.16880051 -1.75226774 50.11400476 -1.74436951 52.0592041 C-1.74398473 58.17558707 -1.90403875 64.06838647 -2.85766602 70.11352539 C-3.18766602 70.11352539 -3.51766602 70.11352539 -3.85766602 70.11352539 C-3.91825195 69.53344727 -3.97883789 68.95336914 -4.04125977 68.35571289 C-4.51783163 63.91259676 -5.06775267 59.51447116 -5.85766602 55.11352539 C-5.19766602 55.77352539 -4.53766602 56.43352539 -3.85766602 57.11352539 C-3.84735855 56.41417374 -3.83705109 55.71482208 -3.82643127 54.99427795 C-3.72861569 48.41638876 -3.62612444 41.83859119 -3.51832676 35.26085758 C-3.463068 31.87885417 -3.40964346 28.49684215 -3.36035156 25.11474609 C-3.30365655 21.23013112 -3.23909017 17.34566662 -3.17407227 13.46118164 C-3.15735977 12.24141129 -3.14064728 11.02164093 -3.12342834 9.76490784 C-3.10348312 8.64382126 -3.0835379 7.52273468 -3.06298828 6.36767578 C-3.047444 5.37506241 -3.03189972 4.38244904 -3.0158844 3.35975647 C-2.82124512 0.5964568 -2.76948297 0.1692482 0 0 Z " fill="#FDE1D5" transform="translate(146.857666015625,203.886474609375)"/>
<path d="M0 0 C0.66 0.33 1.32 0.66 2 1 C0.95647661 6.5490891 -0.20341048 12.06680331 -1.5 17.5625 C-1.7371875 18.57441406 -1.974375 19.58632813 -2.21875 20.62890625 C-2.4765625 21.41136719 -2.734375 22.19382812 -3 23 C-6.75598459 24.8779923 -11.30473982 24.18475762 -15.4375 24.1875 C-16.40494141 24.19974609 -17.37238281 24.21199219 -18.36914062 24.22460938 C-19.76229492 24.22750977 -19.76229492 24.22750977 -21.18359375 24.23046875 C-22.03493896 24.23457764 -22.88628418 24.23868652 -23.76342773 24.24291992 C-26 24 -26 24 -29 22 C-30.203125 19.57421875 -30.203125 19.57421875 -31.25 16.6875 C-31.60578125 15.74261719 -31.9615625 14.79773438 -32.328125 13.82421875 C-33.04964046 10.79133689 -32.84376817 8.96941492 -32 6 C-31.67 7.32 -31.34 8.64 -31 10 C-30.01 10 -29.02 10 -28 10 C-28.33 11.98 -28.66 13.96 -29 16 C-28.34 16 -27.68 16 -27 16 C-27 17.98 -27 19.96 -27 22 C-19.74 22 -12.48 22 -5 22 C-4.5978125 19.0609375 -4.5978125 19.0609375 -4.1875 16.0625 C-3.32737724 10.40672879 -1.99555742 5.35172216 0 0 Z " fill="#DC9687" transform="translate(232,243)"/>
<path d="M0 0 C1.98 0.99 1.98 0.99 4 2 C4 15.2 4 28.4 4 42 C8.95 42 13.9 42 19 42 C19 42.66 19 43.32 19 44 C16.35409986 44.02684679 13.70846904 44.04676357 11.0625 44.0625 C10.30775391 44.07087891 9.55300781 44.07925781 8.77539062 44.08789062 C6.85005687 44.09652441 4.92464419 44.05224333 3 44 C0.97000557 41.97000557 1.76702464 37.81224437 1.71875 35.01953125 C1.70034058 34.21392258 1.68193115 33.4083139 1.66296387 32.57829285 C1.60403539 29.98977178 1.55135607 27.4011817 1.5 24.8125 C1.4484728 22.24167783 1.39544191 19.67094112 1.33703613 17.1002655 C1.30065431 15.49871916 1.2681609 13.89707834 1.2401123 12.29536438 C1.14504042 8.10358216 0.80998596 4.12986261 0 0 Z " fill="#D4806F" transform="translate(329,223)"/>
<path d="M0 0 C7.59 0 15.18 0 23 0 C20.75 12.375 20.75 12.375 18 18 C17.67 18 17.34 18 17 18 C16.78721942 13.53160785 17.40861915 10.17737474 19 6 C19.66 6 20.32 6 21 6 C21 4.68 21 3.36 21 2 C11.595 2.495 11.595 2.495 2 3 C2 3.66 2 4.32 2 5 C1.34 5 0.68 5 0 5 C0.061875 5.9075 0.12375 6.815 0.1875 7.75 C-0.01672076 11.28982642 -0.64551835 12.44931155 -3 15 C-2.430756 9.59218201 -1.53371845 5.36801456 0 0 Z " fill="#D07562" transform="translate(268,205)"/>
<path d="M0 0 C12.33502235 -0.90134128 12.33502235 -0.90134128 16.078125 1.125 C18.42560335 3.71532094 18.99259828 5.80755519 19.125 9.25 C18 12 18 12 15.4375 13.375 C14.633125 13.58125 13.82875 13.7875 13 14 C13.33 13.34 13.66 12.68 14 12 C14.25 8.5 14.25 8.5 14 5 C12.19400239 2.77947138 12.19400239 2.77947138 9.6875 2.734375 C8.3571875 2.74210938 8.3571875 2.74210938 7 2.75 C6.113125 2.74484375 5.22625 2.7396875 4.3125 2.734375 C1.80599761 2.77947138 1.80599761 2.77947138 0 5 C-0.31537716 9.33643601 -0.44897847 11.32653229 2 15 C0.68 15 -0.64 15 -2 15 C-3.26237731 12.47524538 -3.09856404 10.68799534 -3.0625 7.875 C-3.05347656 6.96492187 -3.04445313 6.05484375 -3.03515625 5.1171875 C-3.02355469 4.41851562 -3.01195313 3.71984375 -3 3 C-2.01 2.67 -1.02 2.34 0 2 C0 1.34 0 0.68 0 0 Z " fill="#D87360" transform="translate(98,215)"/>
<path d="M0 0 C0.99 0.33 1.98 0.66 3 1 C1.71937515 2.7074998 0.38232443 4.37373596 -1 6 C-1.66 6 -2.32 6 -3 6 C-3.33 8.64 -3.66 11.28 -4 14 C-3.67 13.34 -3.34 12.68 -3 12 C-2.34 12 -1.68 12 -1 12 C-1 14.31 -1 16.62 -1 19 C-1.66 19 -2.32 19 -3 19 C-1.68 22.3 -0.36 25.6 1 29 C-3.89470856 26.55264572 -5.92417569 24.01731152 -8 19 C-8.49230941 13.82592463 -6.68272761 9.37185241 -4 5 C-2.70420353 3.63015802 -1.38007251 2.2848951 0 1 C0 0.67 0 0.34 0 0 Z " fill="#DE8877" transform="translate(75,260)"/>
<path d="M0 0 C1.65708984 0.0009668 1.65708984 0.0009668 3.34765625 0.00195312 C5.07822266 0.02612305 5.07822266 0.02612305 6.84375 0.05078125 C7.99746094 0.04755859 9.15117188 0.04433594 10.33984375 0.04101562 C18.9431724 0.09622952 18.9431724 0.09622952 22.34375 2.36328125 C22.96025485 7.91182494 22.96025485 7.91182494 22.34375 10.36328125 C17.69222788 14.76948983 12.3305876 13.83985507 6.28125 13.80078125 C5.17974609 13.82076172 4.07824219 13.84074219 2.94335938 13.86132812 C1.88826172 13.86068359 0.83316406 13.86003906 -0.25390625 13.859375 C-1.21820557 13.86122803 -2.18250488 13.86308105 -3.17602539 13.86499023 C-5.65625 13.36328125 -5.65625 13.36328125 -7.47045898 11.52368164 C-9.07224043 8.60538557 -9.07484092 6.64224344 -8.65625 3.36328125 C-6.24813578 -0.0554168 -4.01930921 -0.01183278 0 0 Z M-4.65625 1.36328125 C-6.40190111 4.57967779 -6.860687 6.68341529 -6.65625 10.36328125 C-2.65325128 12.36478061 2.44291731 11.54813334 6.84375 11.55078125 C7.91496094 11.56302734 8.98617187 11.57527344 10.08984375 11.58789062 C11.11207031 11.58982422 12.13429688 11.59175781 13.1875 11.59375 C14.12787109 11.59785889 15.06824219 11.60196777 16.03710938 11.60620117 C18.5392184 11.58725265 18.5392184 11.58725265 20.34375 9.36328125 C20.67708333 6.36328125 20.67708333 6.36328125 20.34375 3.36328125 C18.5360713 1.13196258 18.5360713 1.13196258 16.00537109 1.13623047 C14.57572021 1.15194092 14.57572021 1.15194092 13.1171875 1.16796875 C12.0859375 1.17441406 11.0546875 1.18085938 9.9921875 1.1875 C8.37183594 1.21263672 8.37183594 1.21263672 6.71875 1.23828125 C5.08679688 1.25181641 5.08679688 1.25181641 3.421875 1.265625 C0.72894848 1.28924716 -1.96354255 1.32218569 -4.65625 1.36328125 Z " fill="#E9A999" transform="translate(98.65625,265.63671875)"/>
<path d="M0 0 C5.61 0 11.22 0 17 0 C17 0.33 17 0.66 17 1 C15.35 1.33 13.7 1.66 12 2 C11.67 3.98 11.34 5.96 11 8 C12.65 8 14.3 8 16 8 C16 8.66 16 9.32 16 10 C10.375 11.125 10.375 11.125 7 10 C7.33 7.69 7.66 5.38 8 3 C7.34 3 6.68 3 6 3 C5.5978125 4.7015625 5.5978125 4.7015625 5.1875 6.4375 C4.795625 7.613125 4.40375 8.78875 4 10 C3.01 10.33 2.02 10.66 1 11 C1.33 7.7 1.66 4.4 2 1 C1.34 0.67 0.68 0.34 0 0 Z " fill="#C5725F" transform="translate(344,277)"/>
<path d="M0 0 C7.59 0 15.18 0 23 0 C26.375 9 26.375 9 25 15 C24.67 15 24.34 15 24 15 C23.505 8.565 23.505 8.565 23 2 C15.41 2 7.82 2 0 2 C0.66 2.33 1.32 2.66 2 3 C1.67 4.98 1.34 6.96 1 9 C0.01 9 -0.98 9 -2 9 C-1.67 10.32 -1.34 11.64 -1 13 C-1.99 13.33 -2.98 13.66 -4 14 C-3.71572583 12.41532272 -3.42225182 10.8322943 -3.125 9.25 C-2.96257812 8.36828125 -2.80015625 7.4865625 -2.6328125 6.578125 C-2 4 -2 4 0 0 Z " fill="#E2B3A7" transform="translate(227,204)"/>
<path d="M0 0 C0.99 0.33 1.98 0.66 3 1 C2.0409375 2.1446875 2.0409375 2.1446875 1.0625 3.3125 C-2.16298659 7.51540676 -2.19208673 11.20133715 -2.31640625 16.29296875 C-2.33718735 16.99899734 -2.35796844 17.70502594 -2.37937927 18.43244934 C-2.44467491 20.68403551 -2.50366647 22.93573662 -2.5625 25.1875 C-2.60570425 26.7155066 -2.64931916 28.24350164 -2.69335938 29.77148438 C-2.80033574 33.51420562 -2.90165922 37.2570423 -3 41 C-3.99 41.495 -3.99 41.495 -5 42 C-5 29.79 -5 17.58 -5 5 C-4.34 4.67 -3.68 4.34 -3 4 C-3 3.34 -3 2.68 -3 2 C-2.01 2 -1.02 2 0 2 C0 1.34 0 0.68 0 0 Z " fill="#E6ADA1" transform="translate(172,225)"/>
<path d="M0 0 C1.27552734 0.03963867 2.55105469 0.07927734 3.86523438 0.12011719 C4.54573853 0.14039978 5.22624268 0.16068237 5.92736816 0.18157959 C7.36662394 0.22716744 8.80572329 0.27794361 10.24462891 0.33349609 C12.4499858 0.41665288 14.65522237 0.47851468 16.86132812 0.53808594 C18.25850705 0.58498431 19.65564511 0.63311989 21.05273438 0.68261719 C22.96602539 0.74884277 22.96602539 0.74884277 24.91796875 0.81640625 C27.95898438 1.16699219 27.95898438 1.16699219 29.95898438 3.16699219 C29.62898438 4.15699219 29.29898438 5.14699219 28.95898438 6.16699219 C28.95898438 5.50699219 28.95898438 4.84699219 28.95898438 4.16699219 C28.36359863 4.172229 27.76821289 4.17746582 27.15478516 4.18286133 C24.46452891 4.20361218 21.77428948 4.21664626 19.08398438 4.22949219 C18.14683594 4.23787109 17.2096875 4.24625 16.24414062 4.25488281 C14.90029297 4.2597168 14.90029297 4.2597168 13.52929688 4.26464844 C12.28817139 4.27250366 12.28817139 4.27250366 11.02197266 4.28051758 C8.95898438 4.16699219 8.95898438 4.16699219 6.95898438 3.16699219 C4.92150807 2.93841105 2.87858134 2.75674941 0.83398438 2.60449219 C-0.80957031 2.47880859 -0.80957031 2.47880859 -2.48632812 2.35058594 C-3.329375 2.29 -4.17242187 2.22941406 -5.04101562 2.16699219 C-3.04101562 0.16699219 -3.04101562 0.16699219 0 0 Z " fill="#DD9787" transform="translate(179.041015625,202.8330078125)"/>
<path d="M0 0 C2.625 0.9375 2.625 0.9375 5 2 C5 1.34 5 0.68 5 0 C5.99 0 6.98 0 8 0 C7.67 3.3 7.34 6.6 7 10 C4.36 10 1.72 10 -1 10 C-1.33 9.01 -1.66 8.02 -2 7 C-2.66 7 -3.32 7 -4 7 C-3.39816251 4.97954558 -2.72693904 2.97888961 -2 1 C-1.34 0.67 -0.68 0.34 0 0 Z " fill="#C25540" transform="translate(330,277)"/>
<path d="M0 0 C6.15234375 -0.09765625 6.15234375 -0.09765625 8 0 C9 1 9 1 9.1875 4.4375 C9 8 9 8 7 10 C4.31160615 10.26991906 1.70858064 10.08737357 -1 10 C-1.125 2.25 -1.125 2.25 0 0 Z M3 2 C2.67 3.65 2.34 5.3 2 7 C2.99 6.67 3.98 6.34 5 6 C5 4.68 5 3.36 5 2 C4.34 2 3.68 2 3 2 Z " fill="#C05744" transform="translate(363,277)"/>
<path d="M0 0 C0.495 0.99 0.495 0.99 1 2 C1.66 2.33 2.32 2.66 3 3 C0.37380707 5.62619293 -0.89595463 5.28873917 -4.55859375 5.37890625 C-6.22051758 5.43014648 -6.22051758 5.43014648 -7.91601562 5.48242188 C-9.65915039 5.52206055 -9.65915039 5.52206055 -11.4375 5.5625 C-13.72796978 5.62240656 -16.01834607 5.6860372 -18.30859375 5.75390625 C-19.83697876 5.78979858 -19.83697876 5.78979858 -21.39624023 5.82641602 C-24.11327453 5.89752379 -24.11327453 5.89752379 -27 7 C-28.39439664 7.06665376 -29.79169875 7.08538199 -31.1875 7.0625 C-33.0746875 7.0315625 -33.0746875 7.0315625 -35 7 C-27.65039119 2.10026079 -18.85268734 2.63201944 -10.33789062 2.43359375 C-9.43619141 2.40394531 -8.53449219 2.37429687 -7.60546875 2.34375 C-6.79231201 2.32505859 -5.97915527 2.30636719 -5.14135742 2.28710938 C-2.70401455 2.11988369 -2.70401455 2.11988369 0 0 Z " fill="#E1988A" transform="translate(120,200)"/>
<path d="M0 0 C0.33 0 0.66 0 1 0 C1.66 5.28 2.32 10.56 3 16 C4.98 16 6.96 16 9 16 C9.66 16.66 10.32 17.32 11 18 C10.625 20.125 10.625 20.125 10 22 C10.66 22.33 11.32 22.66 12 23 C9.69 23.33 7.38 23.66 5 24 C5.33 23.01 5.66 22.02 6 21 C4.83065353 19.16029519 4.83065353 19.16029519 3.125 17.4375 C-0.23389558 13.80520594 -1.13953644 12.00053389 -1.125 7 C-1.12757812 6.113125 -1.13015625 5.22625 -1.1328125 4.3125 C-1 2 -1 2 0 0 Z " fill="#DD7A69" transform="translate(74,216)"/>
<path d="M0 0 C0.33 0.66 0.66 1.32 1 2 C3.64 2 6.28 2 9 2 C9 2.33 9 2.66 9 3 C6.69 3 4.38 3 2 3 C1.67 6.3 1.34 9.6 1 13 C2.65 13 4.3 13 6 13 C6 13.33 6 13.66 6 14 C4.02 14 2.04 14 0 14 C-0.33 13.01 -0.66 12.02 -1 11 C-2.65 11 -4.3 11 -6 11 C-6.04254356 9.00045254 -6.04080783 6.99958364 -6 5 C-5 4 -5 4 -2.4375 3.9375 C-1.2309375 3.9684375 -1.2309375 3.9684375 0 4 C-0.33 3.01 -0.66 2.02 -1 1 C-0.67 0.67 -0.34 0.34 0 0 Z M-1 9 C0 11 0 11 0 11 Z " fill="#F1C7BE" transform="translate(361,274)"/>
<path d="M0 0 C0.83265381 0.00523682 1.66530762 0.01047363 2.52319336 0.01586914 C3.42231445 0.0190918 4.32143555 0.02231445 5.24780273 0.02563477 C6.66609375 0.03820312 6.66609375 0.03820312 8.11303711 0.05102539 C9.06243164 0.05553711 10.01182617 0.06004883 10.98999023 0.06469727 C13.34356776 0.07652429 15.69702188 0.09300514 18.05053711 0.11352539 C17.30053711 7.86352539 17.30053711 7.86352539 15.05053711 10.11352539 C15.05053711 7.47352539 15.05053711 4.83352539 15.05053711 2.11352539 C9.77053711 2.11352539 4.49053711 2.11352539 -0.94946289 2.11352539 C-1.60946289 3.76352539 -2.26946289 5.41352539 -2.94946289 7.11352539 C-3.60946289 7.11352539 -4.26946289 7.11352539 -4.94946289 7.11352539 C-2.72992553 0.158975 -2.72992553 0.158975 0 0 Z " fill="#DF9688" transform="translate(125.949462890625,192.886474609375)"/>
<path d="M0 0 C0.66 0 1.32 0 2 0 C3 2 3 2 3 9 C10.26 9 17.52 9 25 9 C25 8.01 25 7.02 25 6 C25.66 6 26.32 6 27 6 C26.67 7.32 26.34 8.64 26 10 C20.98391475 11.0176403 16.21391694 11.11856434 11.125 11.0625 C10.34125 11.05798828 9.5575 11.05347656 8.75 11.04882812 C6.83329986 11.03714093 4.91663952 11.01920908 3 11 C0 4.5 0 4.5 0 0 Z " fill="#DB9486" transform="translate(244,256)"/>
<path d="M0 0 C0.33 0 0.66 0 1 0 C2.32 4.95 3.64 9.9 5 15 C5.66 14.34 6.32 13.68 7 13 C6.67 14.98 6.34 16.96 6 19 C4.35 18.67 2.7 18.34 1 18 C0.67 15.69 0.34 13.38 0 11 C-0.66 11 -1.32 11 -2 11 C-1.85892253 9.54119891 -1.71197585 8.08296449 -1.5625 6.625 C-1.48128906 5.81289062 -1.40007812 5.00078125 -1.31640625 4.1640625 C-1 2 -1 2 0 0 Z " fill="#DF7C67" transform="translate(212,222)"/>
<path d="M0 0 C6.27 0 12.54 0 19 0 C19 2.31 19 4.62 19 7 C19.66 7 20.32 7 21 7 C21.33 6.34 21.66 5.68 22 5 C22.33 5.99 22.66 6.98 23 8 C22.01 8.33 21.02 8.66 20 9 C19.34 8.67 18.68 8.34 18 8 C17.67 6.02 17.34 4.04 17 2 C11.72 1.67 6.44 1.34 1 1 C1 7.93 1 14.86 1 22 C0.67 22 0.34 22 0 22 C0 14.74 0 7.48 0 0 Z " fill="#C35541" transform="translate(145,206)"/>
<path d="M0 0 C6.27 0 12.54 0 19 0 C19.33 1.65 19.66 3.3 20 5 C20.99 5.33 21.98 5.66 23 6 C22.01 7.485 22.01 7.485 21 9 C20.34 9 19.68 9 19 9 C19 6.69 19 4.38 19 2 C12.73 2 6.46 2 0 2 C0 1.34 0 0.68 0 0 Z " fill="#E2B9AE" transform="translate(145,204)"/>
<path d="M0 0 C0.33 0 0.66 0 1 0 C0.56682609 5.4146739 -0.48982738 8.80729382 -4 13 C-6.75 14.375 -6.75 14.375 -9 15 C-8.67 14.01 -8.34 13.02 -8 12 C-7.34 12 -6.68 12 -6 12 C-6 10.02 -6 8.04 -6 6 C-5.34 6 -4.68 6 -4 6 C-4 5.34 -4 4.68 -4 4 C-3.01 4 -2.02 4 -1 4 C-0.67 2.68 -0.34 1.36 0 0 Z " fill="#D97B66" transform="translate(142,272)"/>
<path d="M0 0 C1.24540698 3.51395284 0.76387905 5.36669027 -0.65234375 8.765625 C-1.01650391 9.65507812 -1.38066406 10.54453125 -1.75585938 11.4609375 C-2.34077148 12.84152344 -2.34077148 12.84152344 -2.9375 14.25 C-3.32357422 15.18585938 -3.70964844 16.12171875 -4.10742188 17.0859375 C-5.06166831 19.39497827 -6.02611662 21.69918862 -7 24 C-7.33 24 -7.66 24 -8 24 C-8 22.35 -8 20.7 -8 19 C-7.34 19 -6.68 19 -6 19 C-5.95101563 18.35933594 -5.90203125 17.71867187 -5.8515625 17.05859375 C-5.39778189 11.80882152 -4.85611524 6.94964063 -3 2 C-2.01 1.34 -1.02 0.68 0 0 Z " fill="#E09582" transform="translate(284,224)"/>
<path d="M0 0 C0.33 0.66 0.66 1.32 1 2 C1.66 2 2.32 2 3 2 C3.508783 3.55966218 4.00663469 5.12289241 4.5 6.6875 C4.7784375 7.55761719 5.056875 8.42773438 5.34375 9.32421875 C5.99850805 11.99391677 6.11831495 14.26396684 6 17 C3.59195432 14.59195432 2.99231241 12.57796225 1.875 9.375 C1.52179688 8.37210938 1.16859375 7.36921875 0.8046875 6.3359375 C0.53914062 5.56507813 0.27359375 4.79421875 0 4 C-6.97761838 3.13852726 -6.97761838 3.13852726 -14 3 C-10.71508627 0.81005752 -9.16904361 0.64722661 -5.3125 0.375 C-4.31863281 0.30023438 -3.32476562 0.22546875 -2.30078125 0.1484375 C-1.54152344 0.09945312 -0.78226563 0.05046875 0 0 Z " fill="#EAB2A6" transform="translate(189,223)"/>
<path d="M0 0 C3.63 0.33 7.26 0.66 11 1 C11 1.33 11 1.66 11 2 C10.37351562 2.04898438 9.74703125 2.09796875 9.1015625 2.1484375 C8.28429687 2.22320312 7.46703125 2.29796875 6.625 2.375 C5.81289062 2.44460937 5.00078125 2.51421875 4.1640625 2.5859375 C1.79665809 2.82892588 1.79665809 2.82892588 0 5 C-0.31537716 9.33643601 -0.44897847 11.32653229 2 15 C0.68 15 -0.64 15 -2 15 C-3.26237731 12.47524538 -3.09856404 10.68799534 -3.0625 7.875 C-3.05347656 6.96492187 -3.04445313 6.05484375 -3.03515625 5.1171875 C-3.02355469 4.41851562 -3.01195313 3.71984375 -3 3 C-2.01 2.67 -1.02 2.34 0 2 C0 1.34 0 0.68 0 0 Z " fill="#DE9184" transform="translate(98,215)"/>
<path d="M0 0 C0.66 0 1.32 0 2 0 C2 2.64 2 5.28 2 8 C3.32 8 4.64 8 6 8 C6 8.66 6 9.32 6 10 C3.36 10.33 0.72 10.66 -2 11 C-1.85957123 9.35369672 -1.71250671 7.70795821 -1.5625 6.0625 C-1.48128906 5.14597656 -1.40007812 4.22945313 -1.31640625 3.28515625 C-1 1 -1 1 0 0 Z " fill="#CB7C6E" transform="translate(313,277)"/>
<path d="M0 0 C0.99 0.33 1.98 0.66 3 1 C1.71937515 2.7074998 0.38232443 4.37373596 -1 6 C-1.66 6 -2.32 6 -3 6 C-3.33 8.64 -3.66 11.28 -4 14 C-3.67 13.34 -3.34 12.68 -3 12 C-2.34 12 -1.68 12 -1 12 C-1 13.98 -1 15.96 -1 18 C-2.65 17.67 -4.3 17.34 -6 17 C-6.29299363 8.21019108 -6.29299363 8.21019108 -4 5 C-2.68612831 3.64748503 -1.35573748 2.31054623 0 1 C0 0.67 0 0.34 0 0 Z " fill="#DC735F" transform="translate(75,260)"/>
<path d="M0 0 C4.18868077 1.7423504 5.37633263 3.76163132 7.25 7.7578125 C8.43179809 11.29089639 8.26412935 14.30218911 8 18 C7.67 18 7.34 18 7 18 C7 15.69 7 13.38 7 11 C6.01 10.67 5.02 10.34 4 10 C3.33333333 8.33333333 2.66666667 6.66666667 2 5 C1.01 4.67 0.02 4.34 -1 4 C-0.67 2.68 -0.34 1.36 0 0 Z " fill="#E5A295" transform="translate(129,210)"/>
<path d="M0 0 C2.97 0.33 5.94 0.66 9 1 C8.01 1.66 7.02 2.32 6 3 C5.67 4.175625 5.34 5.35125 5 6.5625 C4.67 7.696875 4.34 8.83125 4 10 C3.01 10.33 2.02 10.66 1 11 C1.33 7.7 1.66 4.4 2 1 C1.34 0.67 0.68 0.34 0 0 Z " fill="#D07B66" transform="translate(344,277)"/>
<path d="M0 0 C0 0.33 0 0.66 0 1 C-1.98 1 -3.96 1 -6 1 C-6 0.34 -6 -0.32 -6 -1 C-7.79232337 -0.69128878 -9.58384321 -0.37790936 -11.375 -0.0625 C-12.87160156 0.19853516 -12.87160156 0.19853516 -14.3984375 0.46484375 C-16.96909656 0.87712062 -16.96909656 0.87712062 -19 2 C-20.99960012 2.039992 -23.00047242 2.04346799 -25 2 C-24 0 -24 0 -21.1875 -1.125 C-14.20365537 -2.94687251 -6.58328037 -3.0384371 0 0 Z " fill="#EEBBB6" transform="translate(345,205)"/>
<path d="M0 0 C1.02802734 0.00966797 2.05605469 0.01933594 3.11523438 0.02929688 C4.72301758 0.06700195 4.72301758 0.06700195 6.36328125 0.10546875 C7.44673828 0.11900391 8.53019531 0.13253906 9.64648438 0.14648438 C12.3234153 0.18186232 14.99934963 0.23122686 17.67578125 0.29296875 C17.67578125 0.62296875 17.67578125 0.95296875 17.67578125 1.29296875 C6.78578125 1.78796875 6.78578125 1.78796875 -4.32421875 2.29296875 C-5.21552288 4.96688115 -5.80153409 7.53020698 -6.32421875 10.29296875 C-6.98421875 9.96296875 -7.64421875 9.63296875 -8.32421875 9.29296875 C-8.68949863 3.81377057 -8.68949863 3.81377057 -7.14526367 1.61206055 C-4.66729633 -0.18287946 -3.04002485 -0.05038715 0 0 Z " fill="#FCE6DD" transform="translate(98.32421875,265.70703125)"/>
<path d="M0 0 C2.31 0.33 4.62 0.66 7 1 C1.85714286 6.57142857 1.85714286 6.57142857 -2 7 C-2.33 5.35 -2.66 3.7 -3 2 C-2.34 1.67 -1.68 1.34 -1 1 C-1 1.66 -1 2.32 -1 3 C-0.34 2.67 0.32 2.34 1 2 C0.67 1.34 0.34 0.68 0 0 Z " fill="#DC7460" transform="translate(126,234)"/>
<path d="M0 0 C-3.29752412 2.99053705 -5.45755587 3.36034353 -9.859375 3.29296875 C-10.97441406 3.28330078 -12.08945313 3.27363281 -13.23828125 3.26367188 C-14.97658203 3.2259668 -14.97658203 3.2259668 -16.75 3.1875 C-18.51150391 3.16719727 -18.51150391 3.16719727 -20.30859375 3.14648438 C-23.20619298 3.1111478 -26.10286427 3.06180979 -29 3 C-29 2.67 -29 2.34 -29 2 C-28.37955811 1.97494385 -27.75911621 1.9498877 -27.11987305 1.92407227 C-24.30887603 1.80803279 -21.49820759 1.68534241 -18.6875 1.5625 C-17.22280273 1.50352539 -17.22280273 1.50352539 -15.72851562 1.44335938 C-14.79072266 1.40146484 -13.85292969 1.35957031 -12.88671875 1.31640625 C-11.59060669 1.26141968 -11.59060669 1.26141968 -10.26831055 1.20532227 C-6.67040549 0.87964816 -3.69695465 -0.09991769 0 0 Z " fill="#D06D56" transform="translate(133,287)"/>
<path d="M0 0 C0.66 0.33 1.32 0.66 2 1 C2 3.31 2 5.62 2 8 C0.02 8.99 0.02 8.99 -2 10 C-2 9.34 -2 8.68 -2 8 C-3.32 8 -4.64 8 -6 8 C-5.67 7.01 -5.34 6.02 -5 5 C-5 5.66 -5 6.32 -5 7 C-2.46447088 5.73223544 -2.15080425 4.53176935 -1 2 C-0.67 1.34 -0.34 0.68 0 0 Z " fill="#E1978A" transform="translate(370,277)"/>
<path d="M0 0 C0 2.31 0 4.62 0 7 C0.66 7 1.32 7 2 7 C2 7.99 2 8.98 2 10 C0.68 10 -0.64 10 -2 10 C-2.33 9.01 -2.66 8.02 -3 7 C-3.66 7 -4.32 7 -5 7 C-4.39816251 4.97954558 -3.72693904 2.97888961 -3 1 C-1 0 -1 0 0 0 Z " fill="#C15540" transform="translate(331,277)"/>
<path d="M0 0 C0.33 0 0.66 0 1 0 C1.04241723 2.33294775 1.04092937 4.66702567 1 7 C0.67 7.33 0.34 7.66 0 8 C-0.49331124 10.5427952 -0.89978037 13.0940669 -1.3046875 15.65234375 C-2 18 -2 18 -5 20 C-3.56390017 13.26137773 -1.85991713 6.63370443 0 0 Z " fill="#E6A996" transform="translate(264,221)"/>
<path d="M0 0 C0.33 1.32 0.66 2.64 1 4 C1.99 4 2.98 4 4 4 C3.67 5.98 3.34 7.96 3 10 C3.66 10.33 4.32 10.66 5 11 C4.67 12.65 4.34 14.3 4 16 C3.31225595 14.67741528 2.65288627 13.34013497 2 12 C1.443125 10.865625 0.88625 9.73125 0.3125 8.5625 C-1.01070084 4.97095485 -1.18364147 3.55092442 0 0 Z " fill="#DF8B78" transform="translate(200,249)"/>
<path d="M0 0 C0.99 0.33 1.98 0.66 3 1 C3.3690205 10.41002278 3.3690205 10.41002278 1 15 C0.67 15 0.34 15 0 15 C0 12.69 0 10.38 0 8 C0.66 8 1.32 8 2 8 C1.73323796 6.01508358 1.73323796 6.01508358 1 4 C0.01 3.67 -0.98 3.34 -2 3 C-1.34 2.01 -0.68 1.02 0 0 Z " fill="#D36C56" transform="translate(133,220)"/>
<path d="M0 0 C0.33 0 0.66 0 1 0 C1.05406122 1.93719378 1.09282025 3.87481921 1.125 5.8125 C1.14820313 6.89144531 1.17140625 7.97039062 1.1953125 9.08203125 C1 12 1 12 -1 15 C-1.66 15 -2.32 15 -3 15 C-2.01 10.05 -1.02 5.1 0 0 Z " fill="#DF8A7A" transform="translate(222,219)"/>
<path d="M0 0 C0.33 0 0.66 0 1 0 C1.66 4.62 2.32 9.24 3 14 C2.01 14 1.02 14 0 14 C-1.24377393 11.51245214 -1.13306235 9.77344699 -1.125 7 C-1.12757812 6.113125 -1.13015625 5.22625 -1.1328125 4.3125 C-1 2 -1 2 0 0 Z " fill="#E08F7D" transform="translate(74,216)"/>
<path d="M0 0 C-0.99 1.485 -0.99 1.485 -2 3 C-3.9453125 3.29296875 -3.9453125 3.29296875 -6.125 3.1875 C-7.40375 3.125625 -8.6825 3.06375 -10 3 C-10.33 2.01 -10.66 1.02 -11 0 C-9.54263913 -0.19491452 -8.08405407 -0.38069358 -6.625 -0.5625 C-5.81289062 -0.66691406 -5.00078125 -0.77132812 -4.1640625 -0.87890625 C-2 -1 -2 -1 0 0 Z " fill="#D98171" transform="translate(111,230)"/>
<path d="M0 0 C1.09570312 0.00902344 2.19140625 0.01804688 3.3203125 0.02734375 C4.16335938 0.03894531 5.00640625 0.05054688 5.875 0.0625 C5.875 0.3925 5.875 0.7225 5.875 1.0625 C5.17632812 1.17207031 4.47765625 1.28164062 3.7578125 1.39453125 C2.84773438 1.55308594 1.93765625 1.71164063 1 1.875 C0.09507812 2.02582031 -0.80984375 2.17664063 -1.7421875 2.33203125 C-4.46912478 2.89301301 -4.46912478 2.89301301 -6.125 6.0625 C-6.785 6.0625 -7.445 6.0625 -8.125 6.0625 C-8.125 4.4125 -8.125 2.7625 -8.125 1.0625 C-5.36047967 -0.31976016 -3.0788637 -0.03275387 0 0 Z " fill="#E08872" transform="translate(322.125,220.9375)"/>
<path d="M0 0 C1.63001953 0.01353516 1.63001953 0.01353516 3.29296875 0.02734375 C4.12441406 0.03894531 4.95585937 0.05054688 5.8125 0.0625 C5.8125 0.3925 5.8125 0.7225 5.8125 1.0625 C4.72582031 1.15337891 4.72582031 1.15337891 3.6171875 1.24609375 C-1.35866533 1.67733433 -6.27430391 2.13297641 -11.1875 3.0625 C-11.5175 4.0525 -11.8475 5.0425 -12.1875 6.0625 C-13.5075 5.7325 -14.8275 5.4025 -16.1875 5.0625 C-10.47431177 1.72082387 -6.76173261 -0.0727068 0 0 Z " fill="#F1C3B9" transform="translate(373.1875,202.9375)"/>
<path d="M0 0 C0.99 0 1.98 0 3 0 C2.34 3.3 1.68 6.6 1 10 C0.34 10 -0.32 10 -1 10 C-1.02689216 8.52093108 -1.04634621 7.04172517 -1.0625 5.5625 C-1.07410156 4.73878906 -1.08570313 3.91507812 -1.09765625 3.06640625 C-1 1 -1 1 0 0 Z " fill="#CD7465" transform="translate(322,276)"/>
<path d="M0 0 C0.99 0 1.98 0 3 0 C2.54803755 1.60597325 2.08817673 3.20972508 1.625 4.8125 C1.36976563 5.70582031 1.11453125 6.59914062 0.8515625 7.51953125 C0 10 0 10 -2 13 C-2.19294408 8.17639811 -1.75747614 4.50353262 0 0 Z " fill="#DC8976" transform="translate(273,249)"/>
<path d="M0 0 C0.33 1.32 0.66 2.64 1 4 C1.763125 3.649375 2.52625 3.29875 3.3125 2.9375 C6 2 6 2 9 3 C6.36 4.98 3.72 6.96 1 9 C0.67 6.03 0.34 3.06 0 0 Z " fill="#FAD9C9" transform="translate(311,205)"/>
<path d="M0 0 C0.66 0.33 1.32 0.66 2 1 C0.55527654 4.80881639 -1.32603071 6.29742886 -5 8 C-5.99 7.67 -6.98 7.34 -8 7 C-7.67 6.34 -7.34 5.68 -7 5 C-5.68 5 -4.36 5 -3 5 C-3 3.68 -3 2.36 -3 1 C-2.01 0.67 -1.02 0.34 0 0 Z " fill="#DF8573" transform="translate(139,202)"/>
<path d="M0 0 C0.99 0 1.98 0 3 0 C2.54965877 1.62723299 2.08944646 3.25173664 1.625 4.875 C1.36976563 5.77992188 1.11453125 6.68484375 0.8515625 7.6171875 C0 10 0 10 -2 12 C-2.21278058 7.53160785 -1.59138085 4.17737474 0 0 Z " fill="#DB8672" transform="translate(287,211)"/>
<path d="M0 0 C2.475 0.495 2.475 0.495 5 1 C5 2.65 5 4.3 5 6 C3.35 6 1.7 6 0 6 C0 4.02 0 2.04 0 0 Z " fill="#E39C93" transform="translate(355,279)"/>
<path d="M0 0 C2.49505962 2.49505962 2.35948376 3.67328888 2.625 7.125 C2.69976562 8.03507813 2.77453125 8.94515625 2.8515625 9.8828125 C2.92503906 10.93082031 2.92503906 10.93082031 3 12 C0.71046511 9.71046511 0.47586642 8.54484795 -0.1875 5.4375 C-0.36667969 4.63183594 -0.54585937 3.82617188 -0.73046875 2.99609375 C-0.81941406 2.33738281 -0.90835938 1.67867187 -1 1 C-0.67 0.67 -0.34 0.34 0 0 Z " fill="#E1998A" transform="translate(196,239)"/>
<path d="M0 0 C0.99 0.66 1.98 1.32 3 2 C2.2884375 2.6496875 2.2884375 2.6496875 1.5625 3.3125 C-0.23686957 5.02309613 -0.23686957 5.02309613 -1 8 C-1.66 8 -2.32 8 -3 8 C-3.33 6.02 -3.66 4.04 -4 2 C-3.34 1.67 -2.68 1.34 -2 1 C-1.34 1.33 -0.68 1.66 0 2 C0 1.34 0 0.68 0 0 Z " fill="#DE7765" transform="translate(357,220)"/>
<path d="M0 0 C8.57142857 0.71428571 8.57142857 0.71428571 12 4 C8.23375329 5.25541557 6.62811066 4.37061958 3 3 C3 2.34 3 1.68 3 1 C2.01 0.67 1.02 0.34 0 0 Z " fill="#DA7D70" transform="translate(125,250)"/>
<path d="M0 0 C1.24546405 2.49092811 0.7767578 3.41080733 0 6 C-0.99 6 -1.98 6 -3 6 C-2.67 7.32 -2.34 8.64 -2 10 C-2.99 10.33 -3.98 10.66 -5 11 C-4.67 8.69 -4.34 6.38 -4 4 C-3.34 4 -2.68 4 -2 4 C-1.34 2.68 -0.68 1.36 0 0 Z " fill="#DE7E6D" transform="translate(228,207)"/>
<path d="M0 0 C1.98 0.99 1.98 0.99 4 2 C4 4.31 4 6.62 4 9 C2 7.875 2 7.875 0 6 C-0.25 2.8125 -0.25 2.8125 0 0 Z " fill="#ED907A" transform="translate(331,278)"/>
<path d="M0 0 C2.31 0 4.62 0 7 0 C7 1.98 7 3.96 7 6 C6.67 4.68 6.34 3.36 6 2 C5.01 2.66 4.02 3.32 3 4 C2.01 4.495 2.01 4.495 1 5 C0.67 3.35 0.34 1.7 0 0 Z " fill="#C66B5B" transform="translate(363,277)"/>
<path d="M0 0 C2.475 0.495 2.475 0.495 5 1 C4.67 2.98 4.34 4.96 4 7 C3.34 7 2.68 7 2 7 C0.5393715 4.35261084 0 3.10551666 0 0 Z " fill="#CE5133" transform="translate(73,253)"/>
<path d="M0 0 C0.33 0 0.66 0 1 0 C3.27678571 8.03571429 3.27678571 8.03571429 2 12 C1.67 10.35 1.34 8.7 1 7 C0.34 7 -0.32 7 -1 7 C-0.67 4.69 -0.34 2.38 0 0 Z " fill="#E09281" transform="translate(212,222)"/>
<path d="M0 0 C-4.13378595 2.7558573 -6.05203546 3.10756445 -11 3 C-8.89427904 -1.21144191 -4.11694326 -0.07767817 0 0 Z " fill="#DC9086" transform="translate(331,204)"/>
<path d="M0 0 C0.99 0 1.98 0 3 0 C3.33 1.98 3.66 3.96 4 6 C3.67 5.34 3.34 4.68 3 4 C2.34 4 1.68 4 1 4 C0.67 5.32 0.34 6.64 0 8 C0 5.36 0 2.72 0 0 Z " fill="#EEAA9B" transform="translate(235,232)"/>
<path d="M0 0 C0.33 0 0.66 0 1 0 C3.27678571 8.03571429 3.27678571 8.03571429 2 12 C2 11.34 2 10.68 2 10 C1.34 10 0.68 10 0 10 C0 6.7 0 3.4 0 0 Z " fill="#E6A495" transform="translate(253,216)"/>
<path d="M0 0 C1.32 0.66 2.64 1.32 4 2 C3.67 3.32 3.34 4.64 3 6 C1.68 5.34 0.36 4.68 -1 4 C-0.67 2.68 -0.34 1.36 0 0 Z " fill="#DC7B6B" transform="translate(129,210)"/>
<path d="M0 0 C0.33 0.66 0.66 1.32 1 2 C1.66 2.33 2.32 2.66 3 3 C1 5 1 5 -2.625 5.125 C-3.73875 5.08375 -4.8525 5.0425 -6 5 C-5.01 4.67 -4.02 4.34 -3 4 C-3 3.34 -3 2.68 -3 2 C-2.01 1.34 -1.02 0.68 0 0 Z " fill="#D86C51" transform="translate(120,200)"/>
<path d="M0 0 C0.33 0 0.66 0 1 0 C1 2.31 1 4.62 1 7 C0.01 7.33 -0.98 7.66 -2 8 C-2.20086443 4.28400809 -2.1519437 3.22791555 0 0 Z " fill="#CC806F" transform="translate(347,280)"/>
<path d="M0 0 C0.99 0.33 1.98 0.66 3 1 C2.071875 2.1446875 2.071875 2.1446875 1.125 3.3125 C-1.05597052 5.99625809 -1.05597052 5.99625809 -3 9 C-3 6.69 -3 4.38 -3 2 C-2.01 2 -1.02 2 0 2 C0 1.34 0 0.68 0 0 Z " fill="#E6A795" transform="translate(172,225)"/>
<path d="M0 0 C0.66 0.33 1.32 0.66 2 1 C-0.52788007 3.79872437 -2.20411134 5.45773019 -6 6 C-4.98545548 3.4636387 -4.3146444 2.20648539 -2 0.6875 C-1.34 0.460625 -0.68 0.23375 0 0 Z " fill="#DC9280" transform="translate(83,207)"/>
<path d="M0 0 C0.66 0 1.32 0 2 0 C3.125 4.75 3.125 4.75 2 7 C1.01 7 0.02 7 -1 7 C-0.67 4.69 -0.34 2.38 0 0 Z " fill="#D05035" transform="translate(219,234)"/>
</svg>
